<?xml version='1.0' encoding='UTF-8'?>
<svg width="82mm" height="82mm" version="1.1" viewBox="0 0 82 82" xmlns="http://www.w3.org/2000/svg"><path d="M8,8H10V10H8zM10,8H12V10H10zM12,8H14V10H12zM14,8H16V10H14zM16,8H18V10H16zM18,8H20V10H18zM20,8H22V10H20zM24,8H26V10H24zM26,8H28V10H26zM30,8H32V10H30zM36,8H38V10H36zM42,8H44V10H42zM44,8H46V10H44zM52,8H54V10H52zM56,8H58V10H56zM60,8H62V10H60zM62,8H64V10H62zM64,8H66V10H64zM66,8H68V10H66zM68,8H70V10H68zM70,8H72V10H70zM72,8H74V10H72zM8,10H10V12H8zM20,10H22V12H20zM32,10H34V12H32zM34,10H36V12H34zM38,10H40V12H38zM40,10H42V12H40zM44,10H46V12H44zM46,10H48V12H46zM50,10H52V12H50zM52,10H54V12H52zM56,10H58V12H56zM60,10H62V12H60zM72,10H74V12H72zM8,12H10V14H8zM12,12H14V14H12zM14,12H16V14H14zM16,12H18V14H16zM20,12H22V14H20zM24,12H26V14H24zM28,12H30V14H28zM32,12H34V14H32zM34,12H36V14H34zM40,12H42V14H40zM50,12H52V14H50zM54,12H56V14H54zM56,12H58V14H56zM60,12H62V14H60zM64,12H66V14H64zM66,12H68V14H66zM68,12H70V14H68zM72,12H74V14H72zM8,14H10V16H8zM12,14H14V16H12zM14,14H16V16H14zM16,14H18V16H16zM20,14H22V16H20zM26,14H28V16H26zM28,14H30V16H28zM32,14H34V16H32zM36,14H38V16H36zM40,14H42V16H40zM44,14H46V16H44zM46,14H48V16H46zM50,14H52V16H50zM54,14H56V16H54zM56,14H58V16H56zM60,14H62V16H60zM64,14H66V16H64zM66,14H68V16H66zM68,14H70V16H68zM72,14H74V16H72zM8,16H10V18H8zM12,16H14V18H12zM14,16H16V18H14zM16,16H18V18H16zM20,16H22V18H20zM24,16H26V18H24zM30,16H32V18H30zM32,16H34V18H32zM44,16H46V18H44zM50,16H52V18H50zM56,16H58V18H56zM60,16H62V18H60zM64,16H66V18H64zM66,16H68V18H66zM68,16H70V18H68zM72,16H74V18H72zM8,18H10V20H8zM20,18H22V20H20zM30,18H32V20H30zM36,18H38V20H36zM42,18H44V20H42zM44,18H46V20H44zM56,18H58V20H56zM60,18H62V20H60zM72,18H74V20H72zM8,20H10V22H8zM10,20H12V22H10zM12,20H14V22H12zM14,20H16V22H14zM16,20H18V22H16zM18,20H20V22H18zM20,20H22V22H20zM24,20H26V22H24zM28,20H30V22H28zM32,20H34V22H32zM36,20H38V22H36zM40,20H42V22H40zM44,20H46V22H44zM48,20H50V22H48zM52,20H54V22H52zM56,20H58V22H56zM60,20H62V22H60zM62,20H64V22H62zM64,20H66V22H64zM66,20H68V22H66zM68,20H70V22H68zM70,20H72V22H70zM72,20H74V22H72zM24,22H26V24H24zM28,22H30V24H28zM32,22H34V24H32zM34,22H36V24H34zM42,22H44V24H42zM52,22H54V24H52zM56,22H58V24H56zM18,24H20V26H18zM20,24H22V26H20zM30,24H32V26H30zM34,24H36V26H34zM36,24H38V26H36zM40,24H42V26H40zM42,24H44V26H42zM44,24H46V26H44zM46,24H48V26H46zM48,24H50V26H48zM56,24H58V26H56zM60,24H62V26H60zM64,24H66V26H64zM68,24H70V26H68zM72,24H74V26H72zM12,26H14V28H12zM14,26H16V28H14zM22,26H24V28H22zM28,26H30V28H28zM30,26H32V28H30zM32,26H34V28H32zM36,26H38V28H36zM40,26H42V28H40zM48,26H50V28H48zM50,26H52V28H50zM54,26H56V28H54zM58,26H60V28H58zM62,26H64V28H62zM64,26H66V28H64zM68,26H70V28H68zM10,28H12V30H10zM14,28H16V30H14zM20,28H22V30H20zM22,28H24V30H22zM24,28H26V30H24zM26,28H28V30H26zM28,28H30V30H28zM34,28H36V30H34zM42,28H44V30H42zM44,28H46V30H44zM48,28H50V30H48zM52,28H54V30H52zM56,28H58V30H56zM58,28H60V30H58zM62,28H64V30H62zM66,28H68V30H66zM70,28H72V30H70zM12,30H14V32H12zM16,30H18V32H16zM30,30H32V32H30zM34,30H36V32H34zM38,30H40V32H38zM42,30H44V32H42zM44,30H46V32H44zM50,30H52V32H50zM62,30H64V32H62zM66,30H68V32H66zM68,30H70V32H68zM8,32H10V34H8zM12,32H14V34H12zM20,32H22V34H20zM22,32H24V34H22zM24,32H26V34H24zM28,32H30V34H28zM36,32H38V34H36zM38,32H40V34H38zM40,32H42V34H40zM42,32H44V34H42zM44,32H46V34H44zM46,32H48V34H46zM48,32H50V34H48zM50,32H52V34H50zM54,32H56V34H54zM56,32H58V34H56zM60,32H62V34H60zM62,32H64V34H62zM66,32H68V34H66zM70,32H72V34H70zM72,32H74V34H72zM14,34H16V36H14zM16,34H18V36H16zM18,34H20V36H18zM22,34H24V36H22zM24,34H26V36H24zM26,34H28V36H26zM42,34H44V36H42zM44,34H46V36H44zM48,34H50V36H48zM50,34H52V36H50zM54,34H56V36H54zM56,34H58V36H56zM60,34H62V36H60zM68,34H70V36H68zM72,34H74V36H72zM8,36H10V38H8zM10,36H12V38H10zM14,36H16V38H14zM16,36H18V38H16zM18,36H20V38H18zM20,36H22V38H20zM24,36H26V38H24zM36,36H38V38H36zM38,36H40V38H38zM46,36H48V38H46zM48,36H50V38H48zM52,36H54V38H52zM56,36H58V38H56zM58,36H60V38H58zM70,36H72V38H70zM8,38H10V40H8zM14,38H16V40H14zM18,38H20V40H18zM24,38H26V40H24zM26,38H28V40H26zM30,38H32V40H30zM34,38H36V40H34zM38,38H40V40H38zM44,38H46V40H44zM46,38H48V40H46zM48,38H50V40H48zM58,38H60V40H58zM62,38H64V40H62zM64,38H66V40H64zM66,38H68V40H66zM68,38H70V40H68zM72,38H74V40H72zM12,40H14V42H12zM16,40H18V42H16zM20,40H22V42H20zM24,40H26V42H24zM36,40H38V42H36zM38,40H40V42H38zM48,40H50V42H48zM54,40H56V42H54zM58,40H60V42H58zM64,40H66V42H64zM12,42H14V44H12zM14,42H16V44H14zM16,42H18V44H16zM18,42H20V44H18zM24,42H26V44H24zM28,42H30V44H28zM30,42H32V44H30zM50,42H52V44H50zM54,42H56V44H54zM56,42H58V44H56zM60,42H62V44H60zM62,42H64V44H62zM70,42H72V44H70zM72,42H74V44H72zM10,44H12V46H10zM12,44H14V46H12zM16,44H18V46H16zM18,44H20V46H18zM20,44H22V46H20zM22,44H24V46H22zM28,44H30V46H28zM30,44H32V46H30zM32,44H34V46H32zM34,44H36V46H34zM42,44H44V46H42zM46,44H48V46H46zM48,44H50V46H48zM52,44H54V46H52zM54,44H56V46H54zM64,44H66V46H64zM66,44H68V46H66zM68,44H70V46H68zM72,44H74V46H72zM8,46H10V48H8zM14,46H16V48H14zM16,46H18V48H16zM22,46H24V48H22zM26,46H28V48H26zM28,46H30V48H28zM32,46H34V48H32zM38,46H40V48H38zM46,46H48V48H46zM52,46H54V48H52zM54,46H56V48H54zM56,46H58V48H56zM60,46H62V48H60zM64,46H66V48H64zM66,46H68V48H66zM68,46H70V48H68zM12,48H14V50H12zM14,48H16V50H14zM18,48H20V50H18zM20,48H22V50H20zM24,48H26V50H24zM28,48H30V50H28zM40,48H42V50H40zM44,48H46V50H44zM52,48H54V50H52zM58,48H60V50H58zM64,48H66V50H64zM66,48H68V50H66zM70,48H72V50H70zM8,50H10V52H8zM10,50H12V52H10zM14,50H16V52H14zM22,50H24V52H22zM24,50H26V52H24zM30,50H32V52H30zM32,50H34V52H32zM40,50H42V52H40zM42,50H44V52H42zM46,50H48V52H46zM52,50H54V52H52zM54,50H56V52H54zM62,50H64V52H62zM64,50H66V52H64zM66,50H68V52H66zM70,50H72V52H70zM8,52H10V54H8zM12,52H14V54H12zM14,52H16V54H14zM16,52H18V54H16zM18,52H20V54H18zM20,52H22V54H20zM24,52H26V54H24zM26,52H28V54H26zM32,52H34V54H32zM34,52H36V54H34zM42,52H44V54H42zM46,52H48V54H46zM48,52H50V54H48zM50,52H52V54H50zM52,52H54V54H52zM56,52H58V54H56zM62,52H64V54H62zM64,52H66V54H64zM66,52H68V54H66zM70,52H72V54H70zM8,54H10V56H8zM12,54H14V56H12zM18,54H20V56H18zM22,54H24V56H22zM24,54H26V56H24zM28,54H30V56H28zM30,54H32V56H30zM32,54H34V56H32zM34,54H36V56H34zM40,54H42V56H40zM44,54H46V56H44zM46,54H48V56H46zM48,54H50V56H48zM54,54H56V56H54zM56,54H58V56H56zM66,54H68V56H66zM68,54H70V56H68zM70,54H72V56H70zM8,56H10V58H8zM10,56H12V58H10zM14,56H16V58H14zM16,56H18V58H16zM20,56H22V58H20zM24,56H26V58H24zM26,56H28V58H26zM28,56H30V58H28zM30,56H32V58H30zM42,56H44V58H42zM48,56H50V58H48zM52,56H54V58H52zM56,56H58V58H56zM58,56H60V58H58zM60,56H62V58H60zM62,56H64V58H62zM64,56H66V58H64zM70,56H72V58H70zM24,58H26V60H24zM30,58H32V60H30zM34,58H36V60H34zM36,58H38V60H36zM40,58H42V60H40zM42,58H44V60H42zM44,58H46V60H44zM52,58H54V60H52zM56,58H58V60H56zM64,58H66V60H64zM70,58H72V60H70zM72,58H74V60H72zM8,60H10V62H8zM10,60H12V62H10zM12,60H14V62H12zM14,60H16V62H14zM16,60H18V62H16zM18,60H20V62H18zM20,60H22V62H20zM28,60H30V62H28zM32,60H34V62H32zM34,60H36V62H34zM36,60H38V62H36zM42,60H44V62H42zM50,60H52V62H50zM54,60H56V62H54zM56,60H58V62H56zM60,60H62V62H60zM64,60H66V62H64zM68,60H70V62H68zM70,60H72V62H70zM8,62H10V64H8zM20,62H22V64H20zM24,62H26V64H24zM26,62H28V64H26zM32,62H34V64H32zM34,62H36V64H34zM36,62H38V64H36zM38,62H40V64H38zM40,62H42V64H40zM42,62H44V64H42zM54,62H56V64H54zM56,62H58V64H56zM64,62H66V64H64zM66,62H68V64H66zM68,62H70V64H68zM70,62H72V64H70zM8,64H10V66H8zM12,64H14V66H12zM14,64H16V66H14zM16,64H18V66H16zM20,64H22V66H20zM26,64H28V66H26zM28,64H30V66H28zM30,64H32V66H30zM38,64H40V66H38zM40,64H42V66H40zM48,64H50V66H48zM50,64H52V66H50zM56,64H58V66H56zM58,64H60V66H58zM60,64H62V66H60zM62,64H64V66H62zM64,64H66V66H64zM70,64H72V66H70zM72,64H74V66H72zM8,66H10V68H8zM12,66H14V68H12zM14,66H16V68H14zM16,66H18V68H16zM20,66H22V68H20zM26,66H28V68H26zM28,66H30V68H28zM30,66H32V68H30zM38,66H40V68H38zM40,66H42V68H40zM42,66H44V68H42zM44,66H46V68H44zM52,66H54V68H52zM54,66H56V68H54zM56,66H58V68H56zM58,66H60V68H58zM62,66H64V68H62zM64,66H66V68H64zM66,66H68V68H66zM72,66H74V68H72zM8,68H10V70H8zM12,68H14V70H12zM14,68H16V70H14zM16,68H18V70H16zM20,68H22V70H20zM26,68H28V70H26zM32,68H34V70H32zM38,68H40V70H38zM40,68H42V70H40zM42,68H44V70H42zM46,68H48V70H46zM50,68H52V70H50zM54,68H56V70H54zM56,68H58V70H56zM64,68H66V70H64zM70,68H72V70H70zM72,68H74V70H72zM8,70H10V72H8zM20,70H22V72H20zM26,70H28V72H26zM32,70H34V72H32zM42,70H44V72H42zM46,70H48V72H46zM48,70H50V72H48zM52,70H54V72H52zM66,70H68V72H66zM68,70H70V72H68zM8,72H10V74H8zM10,72H12V74H10zM12,72H14V74H12zM14,72H16V74H14zM16,72H18V74H16zM18,72H20V74H18zM20,72H22V74H20zM26,72H28V74H26zM28,72H30V74H28zM34,72H36V74H34zM38,72H40V74H38zM40,72H42V74H40zM42,72H44V74H42zM50,72H52V74H50zM54,72H56V74H54zM56,72H58V74H56zM58,72H60V74H58zM66,72H68V74H66zM70,72H72V74H70z" id="qr-path" fill="#000000" fill-opacity="1" fill-rule="nonzero" stroke="none"/></svg>